HIERARCHY
ROOT Hips
{
  OFFSET 0 0 0
  CHANNELS 6 Xposition Yposition Zposition Zrotation Xrotation Yrotation
  JOINT Spine
  {
    OFFSET 0.00000000 0.00000000 0.00000000
    CHANNELS 3 Zrotation Xrotation Yrotation
    JOINT Spine1
    {
      OFFSET 0.19000000 0.00000000 0.00000000
      CHANNELS 3 Zrotation Xrotation Yrotation
      JOINT Neck
      {
        OFFSET 0.22500000 0.00600000 0.00000000
        CHANNELS 3 Zrotation Xrotation Yrotation
        JOINT Head
        {
          OFFSET 0.14000000 0.00030878 0.00000000
          CHANNELS 3 Zrotation Xrotation Yrotation
          End Site
          {
            OFFSET 0.17000000 0.00000000 0.00000000
          }
        }
      }
      JOINT LeftShoulder
      {
        OFFSET 0.19800000 0.03700000 0.04300000
        CHANNELS 3 Zrotation Xrotation Yrotation
        JOINT LeftArm
        {
          OFFSET 0.08000000 0.00000000 0.00000000
          CHANNELS 3 Zrotation Xrotation Yrotation
          JOINT LeftForeArm
          {
            OFFSET 0.15200000 0.00000000 0.00000000
            CHANNELS 3 Zrotation Xrotation Yrotation
            JOINT LeftHand
            {
              OFFSET 0.17800000 0.00000000 0.00000000
              CHANNELS 3 Zrotation Xrotation Yrotation
              End Site
              {
                OFFSET 0.07200000 0.00000000 0.00000000
              }
            }
          }
        }
      }
      JOINT RightShoulder
      {
        OFFSET 0.19800000 0.03700000 -0.04300000
        CHANNELS 3 Zrotation Xrotation Yrotation
        JOINT RightArm
        {
          OFFSET 0.08000000 0.00000000 0.00151654
          CHANNELS 3 Zrotation Xrotation Yrotation
          JOINT RightForeArm
          {
            OFFSET 0.15200000 0.00000000 0.00000000
            CHANNELS 3 Zrotation Xrotation Yrotation
            JOINT RightHand
            {
              OFFSET 0.17800000 0.00000000 0.00000000
              CHANNELS 3 Zrotation Xrotation Yrotation
              End Site
              {
                OFFSET 0.07200000 0.00000000 0.00000000
              }
            }
          }
        }
      }
    }
  }
  JOINT LeftUpLeg
  {
    OFFSET 0.05984250 -0.07666000 0.04788790
    CHANNELS 3 Zrotation Xrotation Yrotation
    JOINT LeftLeg
    {
      OFFSET 0.16000000 0.00000000 0.00000000
      CHANNELS 3 Zrotation Xrotation Yrotation
      JOINT LeftFoot
      {
        OFFSET 0.18000000 0.00000000 0.00000000
        CHANNELS 3 Zrotation Xrotation Yrotation
        End Site
        {
          OFFSET 0.00000000 -0.10800000 0.00000000
        }
      }
    }
  }
  JOINT RightUpLeg
  {
    OFFSET 0.05984250 -0.07665980 -0.04788790
    CHANNELS 3 Zrotation Xrotation Yrotation
    JOINT RightLeg
    {
      OFFSET 0.16000000 0.00000000 0.00000000
      CHANNELS 3 Zrotation Xrotation Yrotation
      JOINT RightFoot
      {
        OFFSET 0.18000000 0.00000000 0.00000000
        CHANNELS 3 Zrotation Xrotation Yrotation
        End Site
        {
          OFFSET 0.00000000 -0.10800000 0.00000000
        }
      }
    }
  }
  JOINT Tail
  {
    OFFSET 0.06836960 -0.00722574 0.00000000
    CHANNELS 3 Zrotation Xrotation Yrotation
    JOINT Tail1
    {
      OFFSET 0.12000000 0.00000000 0.00000000
      CHANNELS 3 Zrotation Xrotation Yrotation
      End Site
      {
        OFFSET 0.12000000 0.00000000 0.00000000
      }
    }
  }
}
MOTION
Frames:	19
Frame Time:	0.0166667
-4.8663959 0.4729380 -0.6848746 -1.83282 8.91498 19.0228 -174.315 0.595085 -16.3037 -2.98194 -4.26669 32.9732 20.093 1.73929 45.8501 -111.599 53.6059 133.907 -111.77 -38.8095 -137.489 120.944 -29.0018 -114.698 -53.2044 14.5403 -11.8283 -13.1418 3.85332 -19.1033 80.5672 -20.7091 39.4169 37.0838 -32.4391 -40.8686 -51.5168 -20.3685 8.52398 -10.6968 0.269721 1.26029 -130.898 4.87648 -20.3052 72.927 11.899 6.51183 46.9929 -3.06967 -5.94479 -127.454 3.25222 -1.57034 69.8034 0.263858 -4.72797 56.4272 0.00111859 -2.56078 161.815 49.9106 140.747 170.529 -19.2965 -178.735 
-4.8643737 0.4733770 -0.6806143 -2.31857 9.66529 18.2785 -173.626 1.04519 -16.5889 -3.71668 -4.06479 33.7615 18.4116 1.31936 44.6413 -112.277 54.932 133.972 -111.789 -38.6959 -137.74 120.88 -29.4025 -115.042 -53.4451 14.7317 -12.5623 -12.3634 3.71308 -18.7767 80.22 -21.1301 39.1752 37.0422 -32.7969 -40.9048 -51.8138 -19.9451 8.33525 -9.6219 0.194385 1.41496 -130.351 4.77939 -21.2542 72.9241 12.1041 7.05259 46.5737 -3.14525 -6.05948 -127.143 3.25337 -1.56417 69.2159 -0.992302 -4.87329 57.3034 0.274839 -2.33931 162.754 54.0206 140.372 170.873 -22.6705 -179.499 
-4.8620692 0.4733860 -0.6763493 -2.87963 10.2836 17.6234 -173.113 1.50537 -16.5083 -4.08303 -3.72919 34.1338 16.5616 0.767151 43.4637 -112.555 56.1603 134.038 -111.737 -38.61 -137.769 120.738 -29.2069 -114.696 -53.0743 14.8268 -13.6999 -11.9842 3.67982 -18.5506 80.1498 -21.2038 39.0831 36.2025 -33.2747 -40.4881 -51.871 -20.2833 7.71094 -9.62743 0.177242 1.91651 -129.854 4.68937 -21.7907 73.2244 12.159 7.24942 46.0647 -3.16216 -6.09347 -126.77 3.36461 -1.50168 68.8149 -1.57914 -5.01196 57.7085 0.414532 -2.22929 164.987 58.6836 139.353 171.004 -27.4077 179.447 
-4.8599109 0.4733160 -0.6723377 -3.52238 10.6435 17.1929 -172.34 1.87103 -15.9954 -4.49135 -3.44482 34.1073 14.4614 0.0677649 42.1291 -112.363 56.4264 134.344 -111.728 -38.633 -137.704 120.368 -29.2862 -114.737 -53.2389 14.6974 -14.0455 -11.6508 3.60303 -18.227 79.6174 -21.9265 39.0414 36.1503 -33.9626 -40.5804 -52.1015 -20.3301 7.46222 -9.7085 0.136727 2.28818 -129.293 4.57304 -21.8976 73.6459 12.1209 7.17909 45.4774 -3.14366 -6.0844 -126.511 3.42639 -1.30237 68.8793 -1.92048 -5.13559 57.9452 0.472677 -2.1724 167.688 63.6459 138.162 170.787 -33.0591 178.11 
-4.8581083 0.4727360 -0.6686361 -3.98057 10.8327 16.8523 -171.604 2.12445 -15.2967 -5.09736 -3.31867 33.8126 12.8752 -0.589137 41.2545 -111.942 57.3066 134.178 -111.698 -38.4805 -137.909 119.548 -29.3302 -115.028 -53.6542 14.7774 -14.3446 -11.454 3.5135 -17.8368 79.3456 -22.3391 39.1828 36.0765 -34.9147 -40.5217 -52.8864 -19.8336 7.02493 -9.07056 0.0844361 2.57493 -128.956 4.41703 -21.7639 74.2123 12.2579 6.9856 44.7575 -3.11808 -6.05998 -126.529 3.0448 -1.80613 69.3087 -1.51582 -4.71445 57.357 0.313123 -2.27469 170.619 68.723 136.612 170.36 -39.3426 176.605 
-4.8565422 0.4723650 -0.6654711 -4.02917 10.8837 16.3216 -171.054 2.23177 -14.8254 -5.87523 -3.37334 33.4641 11.4113 -1.16765 40.5214 -111.545 58.2473 134.026 -111.733 -38.3064 -138.313 118.289 -29.1825 -115.476 -54.2849 14.8629 -14.4215 -11.3785 3.45143 -17.5795 79.012 -22.9201 39.6112 36.1064 -35.6845 -40.9007 -52.9568 -20.3915 6.7561 -9.4002 0.187445 2.43557 -128.858 4.06575 -21.5373 74.4051 12.2283 7.03576 44.4669 -3.10473 -6.05279 -126.901 2.42712 -1.96538 69.5994 -1.47181 -4.30839 57.6335 0.260053 -2.34508 174.793 73.6845 133.436 169.538 -46.1383 174.712 
-4.8553397 0.4719920 -0.6625923 -4.03231 10.8741 15.8428 -170.411 2.25267 -14.3468 -6.73037 -3.54059 33.1512 9.97204 -1.69167 39.6604 -111.281 58.591 133.93 -111.618 -38.1469 -138.321 117.198 -29.2572 -115.7 -54.8464 14.9653 -14.5633 -11.4007 3.37767 -17.2124 78.5658 -23.5243 39.5658 36.1489 -36.9218 -40.7272 -53.4758 -20.0237 6.30631 -9.06946 0.092389 3.02467 -128.794 3.67545 -21.3035 74.5344 12.3042 7.10996 44.3088 -3.10263 -6.05066 -127.288 1.71906 -2.18565 69.8849 -1.70887 -3.86837 57.9651 0.256429 -2.38074 -179.14 78.6008 128.237 168.34 -53.1714 172.595 
-4.8544853 0.4718620 -0.6597807 -3.93715 10.8576 15.3335 -169.734 2.27469 -13.9661 -7.75413 -3.75662 32.9116 8.44764 -2.00312 38.817 -111.675 59.2915 133.871 -111.528 -38.0957 -138.191 116.083 -29.3925 -115.965 -55.3353 14.7831 -14.2518 -11.5491 3.35406 -17.0586 78.4471 -23.7662 39.8259 35.6616 -38.2172 -40.5636 -54.1466 -19.5835 5.64013 -8.73504 0.0120987 3.58001 -128.853 3.27052 -21.0596 74.6439 12.1825 7.24183 44.3867 -3.10514 -6.05515 -127.492 1.3901 -2.32159 69.9778 -0.434249 -3.53539 57.7149 0.00341685 -2.57843 -164.835 83.3871 114.728 166.074 -60.7609 169.369 
-4.8539273 0.4719470 -0.6570795 -3.66724 10.9577 14.7452 -169.338 2.28667 -13.7166 -8.64831 -3.94948 32.6601 6.95219 -2.19519 38.1869 -112.341 60.3698 133.865 -111.493 -37.916 -138.438 114.833 -29.4924 -116.844 -56.2339 14.5148 -13.7944 -11.4184 3.32161 -17.0206 78.2122 -24.1218 39.9235 34.9766 -39.4682 -40.3867 -54.4134 -19.3671 4.93305 -8.78295 -0.1081 4.35976 -129.019 2.88972 -20.826 74.5847 11.8392 7.35033 44.4906 -3.06181 -5.99346 -127.716 1.01656 -2.18743 69.7248 -0.492207 -3.38362 57.7651 -0.000111418 -2.58877 -116.043 86.5988 66.3984 162.561 -68.1427 164.965 
-4.8532180 0.4721210 -0.6546868 -3.44659 11.0846 14.0801 -168.923 2.31928 -13.5607 -9.55406 -4.06293 32.2834 5.38234 -2.44394 37.7397 -113.145 61.4807 133.704 -111.525 -37.8017 -138.733 113.954 -29.5859 -117.329 -56.6451 14.6342 -13.9088 -11.3282 3.27711 -16.8473 78.2565 -24.1402 40.1837 34.6249 -40.1351 -40.6473 -54.5967 -19.2306 4.72965 -8.48519 -0.102919 4.42612 -129.034 2.45973 -20.7722 74.3885 11.5821 7.5876 44.5243 -3.048 -5.96869 -127.943 0.833221 -1.89774 69.5125 -0.957589 -3.40925 57.8778 0.100448 -2.52445 -52.8205 84.6596 3.55792 155.743 -75.1039 157.387 
-4.8526950 0.4721820 -0.6523051 -3.18118 11.3300 13.2403 -168.755 2.38839 -13.7262 -10.0824 -4.08592 32.2501 3.65166 -2.77249 37.1557 -114.088 62.8131 133.395 -111.426 -37.8632 -138.367 113.479 -29.8322 -117.266 -56.7428 14.5707 -13.9896 -11.3692 3.25639 -16.6925 78.2033 -24.2864 40.4155 34.3612 -40.3704 -41.3859 -54.9556 -18.5081 4.69656 -7.96594 -0.206995 4.6495 -129.011 2.10281 -20.8468 74.1826 11.367 7.84721 44.5243 -3.0342 -5.94684 -128.031 0.795146 -1.5145 68.9911 -1.45531 -3.55146 57.9919 0.230491 -2.42407 -34.5408 80.3994 -14.4994 138.325 -81.3321 139.29 
-4.8522598 0.4721430 -0.6501686 -3.07041 11.6277 12.3726 -168.48 2.49488 -13.9726 -10.6735 -4.03534 32.1463 1.91024 -3.07613 36.7069 -115.538 64.3057 132.87 -111.412 -37.8793 -138.302 113.321 -30.1138 -117.25 -56.6541 14.5704 -14.2671 -11.2869 3.23769 -16.5856 78.1853 -24.3367 40.496 34.4438 -40.5956 -41.4309 -55.1958 -19.201 4.55598 -8.66085 -0.127375 4.44736 -128.934 1.9008 -20.9967 74.2485 11.0729 7.99419 44.4289 -2.98505 -5.88651 -128.096 0.539055 -1.45883 68.641 -2.33195 -3.48525 58.2293 0.391197 -2.29914 -27.483 75.9805 -21.3081 87.6068 -84.3258 87.9785 
-4.8519307 0.4718730 -0.6483240 -3.07220 12.0461 11.5479 -168.321 2.58863 -14.3701 -11.0181 -3.94526 32.1788 0.296074 -3.39604 36.3263 -116.749 65.7053 132.471 -111.599 -37.7944 -138.932 112.528 -30.207 -118.319 -57.3818 14.5029 -14.1287 -10.7541 3.15729 -16.5532 78.1085 -24.4032 40.3649 34.8757 -40.46 -41.7365 -55.4992 -19.1277 4.73787 -8.59062 -0.100654 4.13905 -128.863 1.83066 -21.2909 74.5505 10.8317 8.03659 44.0754 -2.91913 -5.80436 -128.044 0.659329 -1.29783 68.3153 -3.01957 -3.68337 58.2412 0.530018 -2.16398 -23.6484 71.2231 -24.6498 38.1605 -81.0837 37.9476 
-4.8516198 0.4715190 -0.6466920 -2.99406 12.2286 10.7702 -168.217 2.60025 -14.7157 -11.3864 -3.95397 32.1675 -1.32633 -3.81356 35.8582 -117.784 66.8067 131.881 -111.728 -37.92 -139.019 112.287 -30.3826 -118.246 -57.0956 14.6409 -14.6247 -10.622 3.13117 -16.4537 78.5963 -23.7776 40.5539 34.204 -40.5907 -41.5854 -55.6063 -19.3985 4.45918 -8.8471 -0.10883 4.31319 -128.846 1.62334 -21.2306 74.8252 10.5211 7.98369 43.8659 -2.84738 -5.70797 -128.13 0.544668 -1.08692 68.1704 -3.73848 -3.76015 58.2245 0.663883 -2.04797 -20.9713 67.0209 -27.0584 22.7068 -75.7193 22.0676 
-4.8515790 0.4709570 -0.6453721 -2.87420 12.3691 10.1923 -168.242 2.5991 -14.982 -11.4732 -4.03177 32.4931 -2.79195 -4.38581 35.2263 -118.043 67.7737 131.108 -111.627 -38.0287 -138.563 112.384 -30.7789 -117.873 -56.7075 14.8374 -15.3255 -10.3849 3.06974 -16.17 78.4341 -23.978 40.4638 34.0278 -40.761 -42.0547 -55.7161 -19.1059 4.51686 -8.56762 -0.137105 4.36855 -128.928 1.41166 -21.2497 75.1093 10.3237 8.0137 43.6641 -2.79793 -5.6437 -128.396 0.299053 -1.3917 68.3021 -3.50749 -3.48541 58.2945 0.607214 -2.10626 -18.6144 63.2322 -29.3414 16.5726 -70.2642 15.4073 
-4.8517428 0.4706610 -0.6441642 -2.80142 12.4101 9.75296 -168.101 2.52369 -15.1358 -11.6956 -4.20556 32.7383 -3.97214 -4.87629 34.6341 -118.608 68.6705 130.248 -111.713 -38.0223 -138.79 112.194 -31.1828 -118.569 -56.8549 14.8942 -15.5175 -9.93129 3.03902 -16.2329 78.1579 -24.3333 40.3623 34.0967 -40.7386 -42.5276 -55.3015 -19.92 4.55239 -9.52946 -0.0592248 4.10931 -128.949 1.14914 -21.273 75.2956 10.1372 8.11541 43.6108 -2.77398 -5.61457 -128.422 0.149582 -1.45833 68.2134 -3.50592 -3.37393 58.1395 0.594582 -2.10132 -16.4002 59.7421 -31.5785 13.3331 -64.9972 11.6366 
-4.8520289 0.4706350 -0.6430370 -2.64855 12.4210 9.48344 -167.841 2.44364 -14.9436 -12.3198 -4.44093 32.5832 -5.1229 -5.32887 34.191 -118.265 69.8445 129.838 -111.719 -37.9809 -138.882 111.909 -31.5715 -118.976 -56.6994 15.0957 -15.957 -9.713 2.98491 -16.0461 78.2029 -24.3208 40.5244 33.8949 -41.0168 -43.2072 -55.3663 -19.6272 4.6049 -9.25319 0.0178995 3.72422 -129.019 0.792934 -21.3784 75.2179 9.98155 8.33432 43.5587 -2.77006 -5.5992 -128.508 0.0870477 -1.36089 68.1063 -3.57991 -3.35781 58.1275 0.633089 -2.07604 -14.3997 56.8154 -33.9144 11.7472 -60.3049 9.42985 
-4.8523659 0.4704170 -0.6422480 -2.49686 12.3844 9.25149 -167.63 2.34186 -14.8965 -12.8516 -4.72941 32.6838 -6.2386 -5.65731 33.6707 -117.72 71.0146 129.697 -111.672 -37.9246 -138.87 111.666 -31.9321 -119.183 -56.5326 15.2486 -16.4872 -9.42326 2.96173 -15.9746 78.2145 -24.3561 40.6895 33.3511 -41.4905 -43.604 -55.2125 -19.6542 4.36222 -9.43022 0.0613697 3.60944 -129.178 0.409236 -21.543 75.237 9.96217 8.63034 43.613 -2.80598 -5.63948 -128.756 0.336437 -1.03272 68.2287 -2.75896 -3.58533 58.26 0.560298 -2.16773 -12.7336 54.094 -35.9532 10.6317 -55.8782 7.59495 
-4.8529379 0.4700300 -0.6417052 -2.44076 12.3414 9.11610 -167.114 2.24862 -14.7577 -13.6903 -5.06454 32.7193 -7.30697 -5.91369 33.2229 -116.947 72.4442 129.717 -111.571 -37.9266 -138.614 111.514 -32.4409 -118.833 -55.9631 15.6208 -17.3947 -9.39254 2.90827 -15.6004 78.3489 -24.2494 40.9544 32.6739 -42.3286 -43.947 -55.3399 -19.5337 4.0558 -9.40631 0.0694664 3.72145 -129.226 0.182388 -21.6294 75.3988 9.89426 8.83315 43.6273 -2.80704 -5.65035 -128.869 -0.336193 -1.67563 68.5104 -3.00057 -2.95277 58.2479 0.518109 -2.19732 -11.1998 51.8217 -37.9025 10.0523 -52.091 6.26559 
